<svg viewBox="0 0 1238 2135.6" xmlns="http://www.w3.org/2000/svg"><linearGradient id="a" gradientTransform="rotate(63.448 285.912 571.068)" gradientUnits="userSpaceOnUse" x1="-279.488" x2="2110.722" y1="270.679" y2="270.679"><stop offset="0" stop-color="#9c8a84"/><stop offset=".297" stop-color="#ded4ca"/><stop offset=".587" stop-color="#e3d4c5"/><stop offset=".827" stop-color="#9c8a84"/></linearGradient><linearGradient id="b" gradientTransform="matrix(.4733 .8519 -.8519 .4733 637.068 57.176)" gradientUnits="userSpaceOnUse" x1="-286.67" x2="2154.127" y1="318.194" y2="318.194"><stop offset="0" stop-color="#96857f"/><stop offset=".297" stop-color="#d5cbc2"/><stop offset=".587" stop-color="#dacbbd"/><stop offset=".827" stop-color="#96857f"/></linearGradient><linearGradient id="c" gradientTransform="matrix(.4997 .8093 -.8093 .4997 605.215 54.318)" gradientUnits="userSpaceOnUse" x1="-292.343" x2="2192.655" y1="372.206" y2="372.206"><stop offset="0" stop-color="#90807a"/><stop offset=".297" stop-color="#ccc3ba"/><stop offset=".587" stop-color="#d1c3b5"/><stop offset=".827" stop-color="#90807a"/></linearGradient><linearGradient id="d" gradientTransform="rotate(55.548 237.835 570.07) scale(.9298)" gradientUnits="userSpaceOnUse" x1="-296.173" x2="2224.872" y1="432.787" y2="432.787"><stop offset="0" stop-color="#8a7a75"/><stop offset=".297" stop-color="#c3bab1"/><stop offset=".587" stop-color="#c7baad"/><stop offset=".827" stop-color="#8a7a75"/></linearGradient><linearGradient id="e" gradientTransform="rotate(52.666 221.665 571.339) scale(.9107)" gradientUnits="userSpaceOnUse" x1="-297.876" x2="2249.275" y1="499.81" y2="499.81"><stop offset="0" stop-color="#857571"/><stop offset=".297" stop-color="#bab1a9"/><stop offset=".587" stop-color="#beb1a5"/><stop offset=".827" stop-color="#857571"/></linearGradient><linearGradient id="f" gradientTransform="scale(.894) rotate(49.664 229.743 641.531)" gradientUnits="userSpaceOnUse" x1="-297.077" x2="2264.376" y1="554.477" y2="554.477"><stop offset="0" stop-color="#7f706c"/><stop offset=".297" stop-color="#b1a8a1"/><stop offset=".587" stop-color="#b5a89d"/><stop offset=".827" stop-color="#7f706c"/></linearGradient><linearGradient id="g" gradientTransform="rotate(46.57 189.1 576.623) scale(.88)" gradientUnits="userSpaceOnUse" x1="-293.5" x2="2268.822" y1="607.442" y2="607.442"><stop offset="0" stop-color="#796b67"/><stop offset=".297" stop-color="#a8a099"/><stop offset=".587" stop-color="#aca095"/><stop offset=".827" stop-color="#796b67"/></linearGradient><linearGradient id="h" gradientTransform="scale(.8685) rotate(43.372 198.8 668.677)" gradientUnits="userSpaceOnUse" x1="-286.939" x2="2261.456" y1="663.078" y2="663.078"><stop offset="0" stop-color="#736662"/><stop offset=".297" stop-color="#9f9791"/><stop offset=".587" stop-color="#a2978d"/><stop offset=".827" stop-color="#736662"/></linearGradient><linearGradient id="i" gradientTransform="rotate(40.098 156.124 585.925) scale(.8598)" gradientUnits="userSpaceOnUse" x1="-277.285" x2="2241.439" y1="709.046" y2="709.046"><stop offset="0" stop-color="#6d605d"/><stop offset=".297" stop-color="#968e88"/><stop offset=".587" stop-color="#998e85"/><stop offset=".827" stop-color="#6d605d"/></linearGradient><linearGradient id="j" gradientTransform="rotate(36.771 139.493 592.128) scale(.8539)" gradientUnits="userSpaceOnUse" x1="-264.546" x2="2208.403" y1="750.939" y2="750.939"><stop offset="0" stop-color="#675b58"/><stop offset=".297" stop-color="#8d8680"/><stop offset=".587" stop-color="#90867d"/><stop offset=".827" stop-color="#675b58"/></linearGradient><linearGradient id="k" gradientTransform="scale(.851) rotate(33.414 144.318 704.416)" gradientUnits="userSpaceOnUse" x1="-248.858" x2="2162.49" y1="791.783" y2="791.783"><stop offset="0" stop-color="#615653"/><stop offset=".297" stop-color="#847d78"/><stop offset=".587" stop-color="#877d75"/><stop offset=".827" stop-color="#615653"/></linearGradient><linearGradient id="l" gradientTransform="rotate(30.039 105.991 607.882) scale(.851)" gradientUnits="userSpaceOnUse" x1="-230.488" x2="2104.39" y1="830.708" y2="830.708"><stop offset="0" stop-color="#5c514f"/><stop offset=".297" stop-color="#7b7470"/><stop offset=".587" stop-color="#7d746e"/><stop offset=".827" stop-color="#5c514f"/></linearGradient><linearGradient id="m" gradientTransform="rotate(26.678 89.068 617.372) scale(.8539)" gradientUnits="userSpaceOnUse" x1="-209.813" x2="2035.301" y1="866.909" y2="866.909"><stop offset="0" stop-color="#564c4a"/><stop offset=".297" stop-color="#726b68"/><stop offset=".587" stop-color="#746b66"/><stop offset=".827" stop-color="#564c4a"/></linearGradient><linearGradient id="n" gradientTransform="matrix(.7893 .3408 -.3408 .7893 254.827 22.87)" gradientUnits="userSpaceOnUse" x1="-187.303" x2="1956.852" y1="899.705" y2="899.705"><stop offset="0" stop-color="#504745"/><stop offset=".297" stop-color="#696360"/><stop offset=".587" stop-color="#6b635e"/><stop offset=".827" stop-color="#504745"/></linearGradient><linearGradient id="o" gradientTransform="rotate(20.081 54.978 639.671) scale(.8685)" gradientUnits="userSpaceOnUse" x1="-163.478" x2="1870.984" y1="928.579" y2="928.579"><stop offset="0" stop-color="#4a4140"/><stop offset=".297" stop-color="#605a57"/><stop offset=".587" stop-color="#625a56"/><stop offset=".827" stop-color="#4a4140"/></linearGradient><linearGradient id="p" gradientTransform="scale(.88) rotate(16.886 42.937 741.359)" gradientUnits="userSpaceOnUse" x1="-138.88" x2="1779.797" y1="953.197" y2="953.197"><stop offset="0" stop-color="#443c3b"/><stop offset=".297" stop-color="#57514f"/><stop offset=".587" stop-color="#58514e"/><stop offset=".827" stop-color="#443c3b"/></linearGradient><linearGradient id="q" gradientTransform="matrix(.8683 .213 -.213 .8683 159.267 14.294)" gradientUnits="userSpaceOnUse" x1="-114.029" x2="1685.408" y1="973.416" y2="973.416"><stop offset="0" stop-color="#3e3736"/><stop offset=".297" stop-color="#4e4947"/><stop offset=".587" stop-color="#4f4946"/><stop offset=".827" stop-color="#3e3736"/></linearGradient><linearGradient id="r" gradientTransform="rotate(10.789 3.196 680.733) scale(.9108)" gradientUnits="userSpaceOnUse" x1="-89.399" x2="1589.819" y1="989.269" y2="989.269"><stop offset="0" stop-color="#383231"/><stop offset=".297" stop-color="#45403f"/><stop offset=".587" stop-color="#46403e"/><stop offset=".827" stop-color="#383231"/></linearGradient><linearGradient id="s" gradientTransform="rotate(7.889 -14.456 696.237) scale(.9298)" gradientUnits="userSpaceOnUse" x1="-65.395" x2="1494.82" y1="1000.936" y2="1000.936"><stop offset="0" stop-color="#332d2d"/><stop offset=".297" stop-color="#3c3737"/><stop offset=".587" stop-color="#3d3736"/><stop offset=".827" stop-color="#332d2d"/></linearGradient><linearGradient id="t" gradientTransform="matrix(.9473 .0852 -.0852 .9473 63.707 5.718)" gradientUnits="userSpaceOnUse" x1="-42.344" x2="1401.923" y1="1008.71" y2="1008.71"><stop offset="0" stop-color="#2d2728"/><stop offset=".297" stop-color="#332e2e"/><stop offset=".587" stop-color="#332e2e"/><stop offset=".827" stop-color="#2d2728"/></linearGradient><linearGradient id="u" gradientTransform="rotate(2.503 -49.475 729.899) scale(.97463)" gradientUnits="userSpaceOnUse" x1="-20.49" x2="1312.331" y1="1012.961" y2="1012.961"><stop offset="0" stop-color="#272223"/><stop offset=".297" stop-color="#2a2626"/><stop offset=".587" stop-color="#2a2626"/><stop offset=".827" stop-color="#272223"/></linearGradient><g fill="none" stroke-miterlimit="10"><path d="M163.4.3c56.7 76.5 99.1 166.7 172.5 229.5 23 19.7 48.1 36.9 74.2 52.3 35.2 20.7 73.9 39.4 96.9 73.2 27.4 40.3 27.9 93.1 28.8 140 1.2 60.7-14.5 126.1 17 180.3 13.1 22.5 30 42.8 49.9 59.6 23.6 19.9 51.2 35 80.8 44.1 91.8 28.2 238.4 29.2 279.3 128.4 18 43.7-7.7 101.2-26.8 145.2-21.4 49.2-37.4 100.7-44.6 152.1-1.8 13.1-3.1 26.1-3.6 39.1-2.4 53.1 6.4 105.8 29.1 152.1 8.2 16.7 18.2 32.5 28.2 48.3 12.3 24.7 30.2 47.7 45 71 13.1 20.6 26.2 41.3 51.3 51.3 38.1 15.3 81.2 18.7 115.7 41 37.9 24.5 49.6 76.6 51 118.9 4 122.2-54.3 255.9 2.8 370.4 7 14 15.9 26.9 26.7 38.3" opacity=".21" stroke="url(#a)" stroke-width="1.033"/><path d="M155.6 5.1c41.5 57.5 75.5 122.4 121.1 177.4 16.2 19.6 33.9 37.9 53.6 54.2 23.5 19.5 49.2 36.5 75.7 51.7 17.6 10 36.1 19.6 53.1 30.7 17.6 11.4 33.8 24.4 46.2 41.2 28.9 39.2 32.3 90.7 34.3 138 1.3 32.6-2.9 66.7-2.3 99.6.5 28.4 4.7 56 18.6 81.4 2.5 4.5 5.1 9 7.9 13.3 11.2 17.5 24.7 33.5 40 47.4 22.8 20.6 49.5 36.4 78.2 46.5 17.5 6.2 37.2 11.4 57.7 16.5 66 16.4 141.5 30.6 188.7 72.9 13.1 11.8 24 25.9 31.7 42.9 19.6 42.7-2.2 99.1-20 143.3-1.4 3.5-2.8 6.9-4.2 10.4-17.9 45.2-31.6 92-38.1 138.9-1.8 12.8-3 25.6-3.6 38.4-2.5 52 5.5 103.7 27.1 149.2 1.6 3.3 3.2 6.5 4.8 9.7 6.7 12.9 14.3 25.4 22 37.8 11.8 24.3 28.9 47 43.1 70 12.6 20.3 25.2 40.7 49.3 50.9 36.6 15.7 78 20 111.4 42.3 36.6 24.5 48.4 75.2 50.3 116.6 5.7 119.6-48 249.3 8.5 361.5 6.9 13.7 15.7 26.3 26.2 37.6" opacity=".248" stroke="url(#b)"/><path d="M147.9 9.9c41.3 58.6 75.2 124.6 122 179.7 16.6 19.6 34.8 37.8 54.9 54 24.1 19.3 50.2 36.1 77.3 51.1 18 9.9 36.7 19.4 54 30.3 17.8 11.3 34.5 23.9 47.6 40.2 30.5 38.2 36.9 88.3 39.9 136.1 2.1 32.6-2.3 66.9-1.9 99.9.3 28.5 4.2 56.2 17.5 81.8 2.4 4.6 4.9 9.1 7.5 13.5 10.7 17.8 23.6 34.1 38.4 48.4 21.9 21.2 47.8 37.7 75.7 48.9 17.1 6.9 36.2 12.7 56.4 18.5C802.1 831 876.7 846.4 925 888c13.4 11.5 24.5 25.3 32.8 41.9 21 41.7 3.3 96.9-13.3 141.5l-3.9 10.2c-16.7 44.3-29.7 90.3-36.1 136.3-1.7 12.5-3 25.1-3.6 37.6-2.6 51 4.6 101.5 25 146.2 1.5 3.2 3 6.4 4.6 9.6 6.4 12.7 13.6 25 20.9 37.2 11.2 23.9 27.5 46.3 41.2 69 12 20 24.3 40 47.3 50.5 35.1 16 74.9 21.3 107.1 43.6 35.4 24.5 47.1 73.9 49.6 114.3 7.5 117.1-41.6 242.7 14.3 352.5 6.8 13.3 15.4 25.8 25.7 36.8" opacity=".285" stroke="url(#c)" stroke-width=".968"/><path d="M140.1 14.7c41 59.7 74.9 126.8 122.9 182.1 17.1 19.6 35.7 37.7 56.3 53.7 24.6 19.2 51.3 35.7 78.8 50.5 18.3 9.8 37.3 19.2 55 30 18.1 11.1 35.3 23.4 49 39.3 32 37.1 41.3 85.9 45.4 134.2 2.8 32.6-1.6 67.1-1.4 100.2.1 28.6 3.7 56.4 16.3 82.3 2.2 4.6 4.6 9.2 7.2 13.6 10.2 18 22.6 34.7 36.8 49.4 21 21.8 46 39.1 73.1 51.4 16.6 7.5 35.3 14.1 55 20.6 63.8 21.1 137.4 37.6 187 78.6 13.6 11.2 25.1 24.7 33.9 40.8 22.5 40.7 8.7 94.6-6.5 139.7-1.1 3.3-2.4 6.6-3.6 10-15.4 43.5-27.8 88.6-34.1 133.7-1.7 12.3-2.9 24.6-3.6 36.8-2.8 49.9 3.7 99.4 22.9 143.3 1.4 3.2 2.8 6.3 4.3 9.4 6 12.5 12.8 24.6 19.7 36.7 10.6 23.5 26.2 45.6 39.3 67.9 11.5 19.7 23.3 39.4 45.3 50.1 33.6 16.3 71.8 22.6 102.8 44.9 34.1 24.5 45.9 72.5 48.9 112 9.2 114.5-35.3 236.1 20.1 343.6 6.7 13 15.1 25.2 25.1 36.1" opacity=".323" stroke="url(#d)" stroke-width=".935"/><path d="M132.3 19.5c40.8 60.7 74.6 129 123.8 184.4 17.5 19.7 36.5 37.6 57.6 53.5 25.1 19 52.4 35.2 80.4 49.9 18.7 9.7 38 19 56 29.6 18.3 10.9 36 22.9 50.4 38.4 33.5 36.1 45.8 83.5 50.9 132.3 3.4 32.6-.9 67.3-1 100.5-.1 28.7 3.2 56.6 15.2 82.7 2.1 4.7 4.4 9.3 6.8 13.8 9.7 18.3 21.5 35.2 35.1 50.3 20.2 22.4 44.3 40.5 70.6 53.8 16.2 8.2 34.4 15.4 53.6 22.6 62.6 23.5 135.4 41.1 186.1 81.5 13.8 11 25.6 24.1 35 39.8 23.9 39.8 14.2 92.4.2 137.9-1 3.3-2.2 6.5-3.3 9.8-14.2 42.7-26 86.8-32.1 131-1.7 12-2.9 24.1-3.6 36.1-2.9 48.8 2.9 97.3 20.8 140.4 1.3 3.1 2.6 6.2 4 9.3 5.6 12.3 12.1 24.2 18.6 36.1 10.1 23.1 24.9 44.9 37.4 66.9 11 19.4 22.3 38.8 43.4 49.6 32.2 16.7 68.6 23.9 98.5 46.1 32.8 24.5 44.7 71.2 48.3 109.7 10.9 111.9-29 229.5 25.9 334.7 6.6 12.7 14.8 24.6 24.6 35.3" opacity=".36" stroke="url(#e)" stroke-width=".902"/><path d="M124.5 24.4c40.5 61.8 74.3 131.3 124.7 186.7 17.9 19.7 37.4 37.5 59 53.3 25.7 18.8 53.4 34.8 81.9 49.3 19 9.6 38.6 18.7 56.9 29.2 18.6 10.7 36.7 22.4 51.8 37.4 35.1 35 50.2 81.1 56.5 130.4 4.1 32.6-.3 67.5-.5 100.7-.2 28.8 2.7 56.8 14 83.1 2 4.7 4.2 9.4 6.4 14 9.2 18.5 20.4 35.8 33.5 51.3 19.3 23 42.6 41.9 68 56.3 15.7 8.9 33.5 16.8 52.2 24.7 61.5 25.9 133.3 44.6 185.2 84.4 14 10.7 26.2 23.5 36.2 38.7 25.4 38.8 19.6 90.1 7 136.1-.9 3.2-2 6.4-3 9.6-13 41.8-24.1 85.1-30.1 128.4-1.6 11.8-2.9 23.5-3.6 35.3-3 47.7 2 95.1 18.7 137.5 1.2 3.1 2.5 6.1 3.8 9.1 5.3 12.1 11.3 23.8 17.5 35.5 9.5 22.8 23.5 44.2 35.5 65.9 10.5 19.1 21.4 38.1 41.4 49.2 30.7 17 65.5 25.2 94.2 47.4 31.5 24.5 43.3 69.8 47.6 107.4 12.4 109.4-22.6 222.9 31.6 325.8 6.5 12.4 14.6 24.1 24.1 34.6" opacity=".398" stroke="url(#f)" stroke-width=".869"/><path d="M116.8 29.2c40.2 62.9 74 133.5 125.7 189.1 18.3 19.7 38.3 37.4 60.3 53 26.2 18.6 54.5 34.4 83.5 48.7 19.3 9.5 39.3 18.5 57.9 28.9 18.8 10.5 37.4 21.9 53.2 36.5 36.6 34 54.7 78.7 62 128.4 4.8 32.6.4 67.7-.1 101-.4 28.9 2.2 57 12.8 83.6 1.9 4.8 3.9 9.5 6.1 14.1 8.7 18.7 19.4 36.3 31.9 52.2 18.5 23.6 40.8 43.3 65.5 58.7 15.3 9.6 32.5 18.2 50.8 26.8 60.4 28.3 131.2 48.2 184.4 87.3 14.2 10.4 26.8 22.9 37.3 37.6 27 37.8 25 87.8 13.7 134.3-.8 3.2-1.8 6.3-2.7 9.4-11.7 41-22.2 83.4-28.1 125.8-1.6 11.5-2.8 23-3.6 34.5-3.2 46.6 1.1 93 16.7 134.6 1.1 3 2.3 6 3.5 8.9 4.9 11.9 10.6 23.4 16.4 35 8.9 22.4 22.2 43.5 33.6 64.8 10 18.8 20.4 37.5 39.4 48.8 29.2 17.4 62.3 26.5 89.8 48.7 30.2 24.5 42.1 68.5 46.9 105 14.1 106.8-16.3 216.3 37.4 316.9 6.4 12.1 14.3 23.5 23.5 33.9" opacity=".436" stroke="url(#g)" stroke-width=".837"/><path d="M109 34c40 64 73.7 135.7 126.6 191.4 18.7 19.8 39.2 37.3 61.7 52.8 26.7 18.4 55.6 34 85 48.1 19.7 9.4 39.9 18.3 58.9 28.5 19.1 10.3 38.2 21.4 54.6 35.6 38.1 33 59.1 76.3 67.6 126.5 5.5 32.6 1.1 67.9.4 101.3-.6 29 1.7 57.2 11.7 84 1.8 4.8 3.7 9.6 5.7 14.3 8.2 19 18.3 36.9 30.2 53.2 17.6 24.2 39.1 44.7 62.9 61.1 14.8 10.2 31.6 19.6 49.5 28.8 59.3 30.7 129.1 51.7 183.5 90.1 14.4 10.2 27.3 22.3 38.4 36.6 28.5 36.8 30.3 85.4 20.5 132.5-.6 3.1-1.6 6.1-2.4 9.2-10.5 40.2-20.4 81.7-26.1 123.2-1.6 11.3-2.8 22.5-3.6 33.7-3.3 45.6.2 90.8 14.6 131.7 1 2.9 2.1 5.9 3.2 8.8 4.5 11.7 9.8 23 15.2 34.4 8.4 22 20.9 42.8 31.7 63.8 9.5 18.5 19.5 36.9 37.5 48.4 27.7 17.7 59.2 27.8 85.5 50 29 24.5 40.8 67.1 46.2 102.7 15.8 104.3-10 209.7 43.2 308 6.3 11.8 14 22.9 23 33.1" opacity=".473" stroke="url(#h)" stroke-width=".804"/><path d="M101.2 38.8c39.7 65.1 73.4 137.9 127.5 193.8 19.1 19.8 40.1 37.2 63 52.5 27.3 18.2 56.7 33.6 86.6 47.4 20 9.3 40.6 18.1 59.8 28.1 19.3 10.1 38.9 20.9 56 34.6 39.7 31.9 63.5 73.9 73.1 124.6 6.2 32.6 1.7 68 .8 101.6-.8 29.1 1.3 57.4 10.5 84.5 1.7 4.9 3.4 9.7 5.3 14.5 7.7 19.2 17.3 37.4 28.6 54.2 16.8 24.8 37.4 46.2 60.4 63.6 14.4 10.9 30.7 21 48.1 30.9 58.1 33.2 127 55.3 182.7 93 14.6 9.9 27.9 21.7 39.5 35.5 30 35.8 35.6 83.1 27.2 130.6-.5 3-1.4 6-2.1 9-9.3 39.3-18.5 79.9-24.1 120.5-1.5 11-2.7 22-3.6 33-3.5 44.5-.6 88.7 12.5 128.8.9 2.9 1.9 5.8 3 8.6 4.2 11.5 9.1 22.7 14.1 33.8 7.8 21.6 19.5 42.1 29.8 62.8 9 18.2 18.5 36.3 35.5 48 26.3 18.1 56.1 29.1 81.2 51.3 27.7 24.5 39.6 65.8 45.5 100.4 17.5 101.7-3.6 203.1 49 299 6.2 11.5 13.8 22.4 22.5 32.4" opacity=".511" stroke="url(#i)" stroke-width=".771"/><path d="M93.4 43.6c39.5 66.2 73.1 140.1 128.4 196.1 19.5 19.8 41 37.1 64.4 52.3 27.8 18.1 57.7 33.1 88.1 46.8 20.4 9.2 41.2 17.8 60.8 27.8 19.6 9.9 39.6 20.5 57.4 33.7 41.2 30.9 68 71.6 78.6 122.7 6.8 32.6 2.4 68.2 1.2 101.8-1 29.2.8 57.6 9.4 84.9 1.5 4.9 3.2 9.8 5 14.6 7.2 19.5 16.2 38 27 55.1 15.9 25.4 35.6 47.6 57.8 66 13.9 11.6 29.7 22.4 46.7 33 57 35.7 124.9 58.9 181.8 95.9 14.8 9.7 28.5 21.1 40.6 34.4 31.5 34.8 40.9 80.7 34 128.8-.4 3-1.2 5.9-1.8 8.8-8 38.5-16.7 78.2-22.1 117.9-1.5 10.7-2.7 21.5-3.6 32.2-3.6 43.4-1.5 86.5 10.4 125.9.9 2.8 1.8 5.7 2.7 8.5 3.8 11.3 8.3 22.3 13 33.2 7.2 21.2 18.2 41.4 27.9 61.7 8.5 17.9 17.6 35.6 33.5 47.5 24.8 18.5 52.9 30.4 76.9 52.6 26.4 24.5 38.3 64.4 44.8 98.1 19.2 99.1 2.7 196.5 54.7 290.1 6.2 11.1 13.5 21.8 21.9 31.7" opacity=".549" stroke="url(#j)" stroke-width=".738"/><path d="M85.7 48.4c39.2 67.2 72.8 142.3 129.3 198.4 19.9 19.8 41.9 37 65.7 52.1 28.4 17.9 58.8 32.7 89.7 46.2 20.7 9 41.8 17.6 61.8 27.4 19.8 9.7 40.3 20 58.8 32.8 42.7 29.8 72.4 69.2 84.2 120.8 7.5 32.6 3.1 68.4 1.7 102.1-1.2 29.2.3 57.8 8.2 85.3 1.4 5 3 9.9 4.6 14.8 6.7 19.7 15.2 38.6 25.3 56.1 15.1 26 33.9 49 55.3 68.5 13.5 12.3 28.8 23.8 45.3 35 55.8 38.1 122.8 62.4 180.9 98.8 15 9.4 29.1 20.5 41.7 33.4 33.1 33.8 46.1 78.3 40.7 127-.3 2.9-1 5.7-1.5 8.6-6.8 37.7-14.8 76.5-20.1 115.3-1.4 10.5-2.7 21-3.6 31.4-3.7 42.3-2.4 84.4 8.3 123 .8 2.8 1.6 5.5 2.5 8.3 3.5 11.1 7.6 21.9 11.9 32.7 6.7 20.8 16.8 40.7 26 60.7 8 17.6 16.6 35 31.5 47.1 23.3 18.9 49.8 31.7 72.6 53.9 25.1 24.5 37.1 63.1 44.2 95.8 20.9 96.6 9 189.9 60.5 281.2 6.1 10.8 13.2 21.2 21.4 30.9" opacity=".586" stroke="url(#k)" stroke-width=".705"/><path d="M77.9 53.2c38.9 68.3 72.5 144.5 130.2 200.8 20.3 19.9 42.8 37 67.1 51.8 28.9 17.7 59.9 32.3 91.2 45.6 21.1 8.9 42.5 17.4 62.7 27 20.1 9.5 41 19.5 60.2 31.8C533.6 439 566.1 477 579 529c8.1 32.7 3.7 68.6 2.1 102.4-1.4 29.3-.2 58 7 85.8 1.3 5 2.7 10 4.2 15 6.2 19.9 14.1 39.1 23.7 57.1 14.2 26.6 32.2 50.4 52.7 70.9 13 13 27.9 25.2 43.9 37.1 54.7 40.6 120.6 66 180.1 101.7 15.2 9.1 29.7 19.9 42.8 32.3 34.7 32.8 51.3 75.8 47.5 125.2-.2 2.8-.8 5.6-1.2 8.5-5.6 36.9-12.9 74.7-18.1 112.7-1.4 10.2-2.6 20.4-3.6 30.7-3.9 41.2-3.3 82.3 6.3 120.1.7 2.7 1.4 5.4 2.2 8.1 3.1 10.9 6.8 21.5 10.8 32.1 6.1 20.4 15.5 40 24.1 59.7 7.5 17.3 15.6 34.4 29.6 46.7 21.8 19.2 46.7 33 68.3 55.2 23.8 24.5 35.8 61.7 43.5 93.4 22.7 94 15.4 183.3 66.3 272.3 6 10.5 13 20.7 20.9 30.2" opacity=".624" stroke="url(#l)" stroke-width=".672"/><path d="M70.1 58c38.7 69.4 72.2 146.7 131.1 203.1 20.7 19.9 43.7 36.9 68.4 51.6 29.4 17.5 61 31.9 92.8 45 21.4 8.8 43.1 17.2 63.7 26.7 20.3 9.3 41.8 19 61.6 30.9 45.8 27.7 81.1 64.4 95.3 116.9 8.8 32.7 4.4 68.8 2.6 102.7-1.6 29.4-.7 58.2 5.9 86.2 1.2 5.1 2.5 10.1 3.9 15.1 5.7 20.2 13 39.7 22.1 58 13.4 27.2 30.4 51.9 50.2 73.4 12.6 13.7 26.9 26.6 42.5 39.2 53.5 43.2 118.5 69.6 179.2 104.5 15.4 8.9 30.3 19.3 43.9 31.2 36.2 31.8 56.4 73.4 54.2 123.4-.1 2.8-.6 5.5-.9 8.3-4.3 36-11.1 73-16.1 110-1.4 10-2.6 19.9-3.6 29.9-4 40.1-4.1 80.1 4.2 117.2.6 2.7 1.2 5.3 1.9 8 2.7 10.7 6.1 21.1 9.6 31.5 5.5 20 14.2 39.3 22.1 58.6 7 17 14.7 33.8 27.6 46.3 20.4 19.6 43.5 34.3 64 56.5 22.5 24.5 34.6 60.4 42.8 91.1 24.4 91.5 21.7 176.7 72.1 263.4 5.9 10.2 12.7 20.1 20.3 29.5" opacity=".661" stroke="url(#m)" stroke-width=".64"/><path d="M62.3 62.8c38.4 70.5 71.9 148.9 132 205.5 21.1 19.9 44.6 36.8 69.8 51.3 30 17.3 62 31.5 94.4 44.4 21.7 8.7 43.8 17 64.7 26.3 20.6 9.1 42.5 18.5 63 30 47.4 26.7 85.5 62 100.8 115 9.4 32.7 5.1 69 3 102.9-1.8 29.5-1.2 58.4 4.7 86.7 1.1 5.1 2.2 10.2 3.5 15.3 5.2 20.4 12 40.2 20.4 59 12.5 27.8 28.7 53.3 47.6 75.8 12.1 14.4 26 28 41.2 41.2 52.3 45.7 116.4 73.2 178.4 107.4 15.6 8.6 30.9 18.7 45 30.2 37.8 30.8 61.4 71 61 121.6 0 2.7-.4 5.4-.6 8.1-3.1 35.2-9.2 71.3-14.1 107.4-1.3 9.7-2.5 19.4-3.6 29.1-4.1 39.1-5 78 2.1 114.3.5 2.6 1.1 5.2 1.7 7.8 2.4 10.4 5.3 20.7 8.5 31 5 19.6 12.8 38.6 20.2 57.6 6.5 16.7 13.7 33.2 25.6 45.8 18.9 20 40.4 35.6 59.6 57.8 21.3 24.5 33.3 59 42.1 88.8 26.1 88.9 28 170.1 77.8 254.4 5.8 9.9 12.4 19.5 19.8 28.7" opacity=".699" stroke="url(#n)" stroke-width=".607"/><path d="M54.6 67.7c38.2 71.6 71.6 151.1 132.9 207.8 21.5 20 45.5 36.7 71.1 51.1 30.5 17.1 63.1 31 95.9 43.8 22.1 8.6 44.4 16.8 65.7 25.9 20.8 9 43.2 18 64.4 29 48.9 25.7 89.9 59.6 106.3 113.1 10.1 32.7 5.7 69.2 3.5 103.2-2 29.6-1.7 58.6 3.6 87.1.9 5.2 2 10.3 3.1 15.5 4.7 20.7 10.9 40.8 18.8 60 11.6 28.5 26.9 54.7 45.1 78.2 11.6 15.1 25 29.4 39.8 43.3 51.1 48.2 114.2 76.8 177.5 110.3 15.8 8.4 31.4 18.1 46.1 29.1 39.4 29.7 66.4 68.6 67.8 119.7.1 2.6-.2 5.2-.3 7.9-1.9 34.4-7.3 69.5-12.1 104.8-1.3 9.4-2.5 18.9-3.6 28.3-4.3 38-5.9 75.8 0 111.4.4 2.6.9 5.1 1.4 7.7 2 10.2 4.6 20.3 7.4 30.4 4.4 19.3 11.5 37.9 18.3 56.5 6 16.4 12.7 32.6 23.6 45.4 17.4 20.4 37.3 37 55.3 59 20 24.5 32.1 57.7 41.4 86.5 27.9 86.3 34.4 163.5 83.6 245.5 5.7 9.6 12.2 19 19.3 28" opacity=".737" stroke="url(#o)" stroke-width=".574"/><path d="M46.8 72.5c37.9 72.6 71.3 153.3 133.8 210.1 21.9 20 46.4 36.6 72.5 50.9 31 16.9 64.2 30.6 97.5 43.2 22.4 8.5 45 16.6 66.6 25.6 21 8.8 43.9 17.5 65.8 28.1 50.4 24.6 94.3 57.2 111.9 111.2 10.7 32.7 6.4 69.4 3.9 103.5-2.2 29.7-2.2 58.8 2.4 87.5.8 5.2 1.8 10.4 2.8 15.6 4.2 20.9 9.9 41.3 17.1 60.9 10.8 29.1 25.1 56.2 42.5 80.7 11.2 15.8 24.1 30.8 38.4 45.4 49.9 50.8 112.1 80.4 176.6 113.2 16 8.1 32 17.5 47.2 28.1 40.9 28.7 71.3 66.2 74.5 117.9.2 2.5 0 5.1 0 7.7-.6 33.5-5.5 67.8-10.1 102.2-1.2 9.2-2.5 18.4-3.6 27.6-4.4 36.9-6.8 73.7-2.1 108.5.3 2.5.7 5 1.1 7.5 1.6 10 3.8 19.9 6.3 29.8 3.8 18.9 10.2 37.2 16.4 55.5 5.5 16.1 11.8 32 21.7 45 15.9 20.8 34.1 38.3 51 60.3 18.7 24.5 30.9 56.3 40.7 84.2 29.6 83.8 40.7 156.9 89.4 236.6 5.6 9.3 11.9 18.4 18.7 27.3" opacity=".774" stroke="url(#p)" stroke-width=".541"/><path d="M39 77.3c37.6 73.7 71 155.5 134.7 212.5 22.4 20 47.3 36.5 73.8 50.6 31.6 16.8 65.2 30.2 99 42.6 22.8 8.4 45.7 16.4 67.6 25.2 21.3 8.6 44.7 17 67.2 27.2 52 23.6 98.6 54.9 117.4 109.2 11.3 32.7 7.1 69.6 4.4 103.8-2.4 29.8-2.7 59 1.3 88 .7 5.3 1.5 10.5 2.4 15.8 3.7 21.2 8.8 41.9 15.5 61.9 9.9 29.7 23.4 57.6 40 83.1 10.7 16.5 23.1 32.2 37 47.4 48.7 53.3 110 84.1 175.8 116.1 16.2 7.9 32.6 16.8 48.3 27 42.5 27.6 76.1 63.8 81.3 116.1.2 2.5.2 5 .3 7.5.6 32.7-3.6 66.1-8.1 99.5-1.2 8.9-2.4 17.9-3.6 26.8-4.5 35.8-7.6 71.6-4.1 105.6.3 2.5.5 4.9.9 7.3 1.3 9.8 3.1 19.5 5.1 29.2 3.3 18.5 8.8 36.5 14.5 54.5 5 15.8 10.8 31.4 19.7 44.6 14.4 21.2 31 39.6 46.7 61.6 17.4 24.5 29.6 54.9 40 81.8 31.4 81.2 47 150.3 95.2 227.7 5.5 9 11.6 17.8 18.2 26.5" opacity=".812" stroke="url(#q)" stroke-width=".508"/><path d="M31.3 82.1c37.4 74.8 70.7 157.7 135.6 214.8 22.8 20 48.2 36.4 75.2 50.4 32.1 16.6 66.3 29.8 100.6 42 23.1 8.3 46.3 16.2 68.6 24.8 21.5 8.4 45.4 16.5 68.7 26.2 53.5 22.5 103 52.5 123 107.3 11.9 32.8 7.7 69.8 4.8 104-2.6 29.9-3.2 59.2.1 88.4.6 5.3 1.3 10.6 2.1 16 3.2 21.4 7.7 42.5 13.9 62.9 9.1 30.3 21.6 59 37.4 85.6 10.2 17.2 22.2 33.7 35.6 49.5 47.5 55.9 107.8 87.7 174.9 118.9 16.4 7.6 33.2 16.2 49.4 25.9 44.1 26.6 80.9 61.4 88 114.3.3 2.4.4 4.9.5 7.3 1.9 31.9-1.7 64.3-6.1 96.9-1.2 8.7-2.4 17.4-3.6 26-4.7 34.7-8.5 69.4-6.2 102.7l.6 7.2c.9 9.6 2.3 19.2 4 28.7 2.7 18.1 7.5 35.8 12.6 53.4 4.5 15.5 9.8 30.8 17.7 44.1 12.9 21.7 27.8 40.9 42.4 62.9 16.1 24.6 28.4 53.6 39.4 79.5 33.2 78.6 53.3 143.6 101 218.8 5.4 8.6 11.3 17.3 17.7 25.8" opacity=".85" stroke="url(#r)" stroke-width=".476"/><path d="M23.5 86.9C60.6 162.8 93.9 246.8 160 304.1c23.2 20.1 49 36.3 76.5 50.1 32.6 16.4 67.4 29.4 102.1 41.4 23.5 8.1 46.9 15.9 69.5 24.5 21.8 8.3 46.1 16 70.1 25.3 55 21.5 107.3 50.1 128.5 105.4 12.6 32.8 8.4 70 5.2 104.3-2.7 30-3.7 59.4-1.1 88.9.5 5.4 1 10.8 1.7 16.1 2.7 21.6 6.7 43 12.2 63.8 8.2 30.9 19.8 60.5 34.9 88 9.8 17.9 21.2 35.1 34.3 51.6 46.2 58.4 105.7 91.4 174.1 121.8 16.6 7.4 33.8 15.6 50.5 24.9 45.7 25.5 85.5 59.1 94.8 112.5.4 2.3.6 4.7.8 7.1 3.1 31 .1 62.6-4.1 94.3-1.1 8.4-2.3 16.8-3.6 25.3-4.8 33.7-9.4 67.3-8.3 99.7.1 2.3.2 4.7.3 7 .5 9.4 1.6 18.8 2.9 28.1 2.1 17.7 6.2 35.1 10.7 52.4 4 15.2 8.8 30.2 15.7 43.7 11.3 22.1 24.7 42.2 38.1 64.2 14.8 24.6 27.2 52.2 38.7 77.2 35 76 59.7 137 106.7 209.9 5.4 8.3 11.1 16.7 17.1 25" opacity=".887" stroke="url(#s)" stroke-width=".443"/><path d="M15.7 91.7c36.9 77 70.1 162.1 137.4 219.5 23.6 20.1 49.9 36.2 77.9 49.9 33.2 16.2 68.5 28.9 103.7 40.8 23.8 8 47.6 15.7 70.5 24.1 22 8.1 46.8 15.5 71.5 24.4 56.6 20.4 111.6 47.8 134 103.5 13.2 32.8 9 70.1 5.7 104.6-2.9 30.1-4.2 59.6-2.2 89.3.4 5.4.8 10.9 1.3 16.3 2.2 21.9 5.6 43.6 10.6 64.8 7.4 31.5 18.1 61.9 32.3 90.5 9.3 18.6 20.2 36.5 32.9 53.6 44.9 61 103.5 95 173.2 124.7 16.8 7.2 34.4 14.9 51.6 23.8 47.2 24.4 90.1 56.9 101.5 110.7.5 2.3.8 4.6 1.1 6.9 4.3 30.2 2 60.9-2.2 91.7-1.1 8.2-2.3 16.3-3.6 24.5-4.9 32.6-10.3 65.1-10.4 96.8 0 2.3 0 4.6.1 6.9.2 9.2.8 18.4 1.8 27.5 1.6 17.3 4.8 34.4 8.8 51.4 3.5 14.9 7.8 29.6 13.8 43.3 9.8 22.5 21.6 43.5 33.8 65.5 13.6 24.6 26 50.9 38 74.9 36.7 73.4 66 130.4 112.5 200.9 5.3 8 10.8 16.1 16.6 24.3" opacity=".925" stroke="url(#t)" stroke-width=".41"/><path d="M7.9 96.5c36.6 78.1 69.8 164.3 138.3 221.8 24 20.1 50.8 36.1 79.2 49.6 33.7 16 69.5 28.5 105.2 40.2 24.1 7.9 48.2 15.5 71.5 23.7 22.3 7.9 47.6 15 72.9 23.4 58.1 19.4 115.9 45.4 139.6 101.6 13.8 32.8 9.7 70.3 6.1 104.9-3.1 30.1-4.7 59.8-3.4 89.7.2 5.5.6 11 1 16.5 1.6 22.1 4.6 44.1 9 65.8 6.5 32.1 16.2 63.4 29.8 92.9 8.8 19.3 19.2 37.9 31.5 55.7 43.6 63.6 101.3 98.8 172.3 127.6 17 6.9 35 14.3 52.7 22.7 48.9 23.3 94.6 54.7 108.3 108.9.6 2.2 1 4.5 1.4 6.7 5.6 29.4 3.8 59.2-.2 89-1.1 7.9-2.3 15.8-3.5 23.7-5.1 31.5-11.1 63-12.5 93.9-.1 2.2-.2 4.5-.2 6.7-.2 9 .1 18 .7 27 1 16.9 3.5 33.7 6.9 50.3 3 14.6 6.8 29 11.8 42.9 8.3 22.9 18.4 44.8 29.5 66.8 12.3 24.6 24.8 49.5 37.3 72.6 38.6 70.8 72.3 123.8 118.3 192 5.2 7.7 10.5 15.5 16.1 23.6" opacity=".962" stroke="url(#u)" stroke-width=".377"/><path d="M.2 101.3c36.3 79.1 69.5 166.5 139.2 224.2 72.9 60.3 172.1 82.4 259.8 112.4C473.4 463.3 583 478.8 618.6 560c14.4 32.9 10.4 70.5 6.6 105.1-3.9 35.8-5.8 70.8-3.9 106.8 4 77.2 22.6 154.2 64.7 219.8 42.4 66.1 99.2 102.4 171.5 130.5 64.9 25.3 147 54.5 168.8 128.7.6 2.2 1.2 4.3 1.7 6.5 16.2 68.1-12.4 138.3-16.7 206.9-5.7 91.1 32 181.9 76.1 256.4 44.9 75.9 87.2 128 139.6 205.9" stroke="#211d1e" stroke-width=".344"/></g></svg>