<svg viewBox="0 0 1430.7 2037" xmlns="http://www.w3.org/2000/svg"><linearGradient id="a" gradientTransform="rotate(56.489 121.385 385.367)" gradientUnits="userSpaceOnUse" x1="1335.438" x2="899.549" y1="797.812" y2="42.831"><stop offset="0" stop-color="#9c8a84"/><stop offset=".297" stop-color="#ded4ca"/><stop offset=".587" stop-color="#e3d4c5"/><stop offset=".827" stop-color="#9c8a84"/></linearGradient><linearGradient id="b" gradientTransform="rotate(54.169 112.424 383.84) scale(.9795)" gradientUnits="userSpaceOnUse" x1="1378.545" x2="893.123" y1="874.035" y2="33.26"><stop offset="0" stop-color="#96857f"/><stop offset=".297" stop-color="#d5cbc2"/><stop offset=".587" stop-color="#dacbbd"/><stop offset=".827" stop-color="#96857f"/></linearGradient><linearGradient id="c" gradientTransform="rotate(51.75 103.358 382.684) scale(.9606)" gradientUnits="userSpaceOnUse" x1="1421.062" x2="878.614" y1="954.559" y2="15.011"><stop offset="0" stop-color="#90807a"/><stop offset=".297" stop-color="#ccc3ba"/><stop offset=".587" stop-color="#d1c3b5"/><stop offset=".827" stop-color="#90807a"/></linearGradient><linearGradient id="d" gradientTransform="rotate(49.238 94.236 381.97) scale(.9436)" gradientUnits="userSpaceOnUse" x1="1462.336" x2="859.427" y1="1038.813" y2="-5.456"><stop offset="0" stop-color="#8a7a75"/><stop offset=".297" stop-color="#c3bab1"/><stop offset=".587" stop-color="#c7baad"/><stop offset=".827" stop-color="#8a7a75"/></linearGradient><linearGradient id="e" gradientTransform="rotate(46.642 85.036 381.64) scale(.9284)" gradientUnits="userSpaceOnUse" x1="1501.64" x2="836.655" y1="1126.026" y2="-25.763"><stop offset="0" stop-color="#857571"/><stop offset=".297" stop-color="#bab1a9"/><stop offset=".587" stop-color="#beb1a5"/><stop offset=".827" stop-color="#857571"/></linearGradient><linearGradient id="f" gradientTransform="matrix(.6587 .6353 -.6353 .6587 286.238 54.396)" gradientUnits="userSpaceOnUse" x1="1538.204" x2="810.594" y1="1215.23" y2="-45.027"><stop offset="0" stop-color="#7f706c"/><stop offset=".297" stop-color="#b1a8a1"/><stop offset=".587" stop-color="#b5a89d"/><stop offset=".827" stop-color="#7f706c"/></linearGradient><linearGradient id="g" gradientTransform="scale(.904) rotate(41.21 73.4 422.955)" gradientUnits="userSpaceOnUse" x1="1571.235" x2="781.448" y1="1305.272" y2="-62.68"><stop offset="0" stop-color="#796b67"/><stop offset=".297" stop-color="#a8a099"/><stop offset=".587" stop-color="#aca095"/><stop offset=".827" stop-color="#796b67"/></linearGradient><linearGradient id="h" gradientTransform="rotate(38.401 56.901 383.422) scale(.895)" gradientUnits="userSpaceOnUse" x1="1599.949" x2="749.461" y1="1394.853" y2="-78.237"><stop offset="0" stop-color="#736662"/><stop offset=".297" stop-color="#9f9791"/><stop offset=".587" stop-color="#a2978d"/><stop offset=".827" stop-color="#736662"/></linearGradient><linearGradient id="i" gradientTransform="rotate(35.535 47.311 384.965) scale(.8881)" gradientUnits="userSpaceOnUse" x1="1623.646" x2="714.99" y1="1482.553" y2="-91.285"><stop offset="0" stop-color="#6d605d"/><stop offset=".297" stop-color="#968e88"/><stop offset=".587" stop-color="#998e85"/><stop offset=".827" stop-color="#6d605d"/></linearGradient><linearGradient id="j" gradientTransform="rotate(32.637 37.66 387.02) scale(.8835)" gradientUnits="userSpaceOnUse" x1="1641.725" x2="678.465" y1="1566.913" y2="-101.503"><stop offset="0" stop-color="#675b58"/><stop offset=".297" stop-color="#8d8680"/><stop offset=".587" stop-color="#90867d"/><stop offset=".827" stop-color="#675b58"/></linearGradient><linearGradient id="k" gradientTransform="rotate(29.705 27.874 389.701) scale(.8812)" gradientUnits="userSpaceOnUse" x1="1653.726" x2="640.393" y1="1646.502" y2="-108.643"><stop offset="0" stop-color="#615653"/><stop offset=".297" stop-color="#847d78"/><stop offset=".587" stop-color="#877d75"/><stop offset=".827" stop-color="#615653"/></linearGradient><linearGradient id="l" gradientTransform="rotate(26.778 18.037 392.799) scale(.8812)" gradientUnits="userSpaceOnUse" x1="1659.365" x2="601.348" y1="1719.995" y2="-112.543"><stop offset="0" stop-color="#5c514f"/><stop offset=".297" stop-color="#7b7470"/><stop offset=".587" stop-color="#7d746e"/><stop offset=".827" stop-color="#5c514f"/></linearGradient><linearGradient id="m" gradientTransform="matrix(.808 .3573 -.3573 .808 161.009 30.598)" gradientUnits="userSpaceOnUse" x1="1658.554" x2="561.941" y1="1786.247" y2="-113.142"><stop offset="0" stop-color="#564c4a"/><stop offset=".297" stop-color="#726b68"/><stop offset=".587" stop-color="#746b66"/><stop offset=".827" stop-color="#564c4a"/></linearGradient><linearGradient id="n" gradientTransform="matrix(.8294 .3176 -.3176 .8294 143.12 27.198)" gradientUnits="userSpaceOnUse" x1="1651.405" x2="522.785" y1="1844.344" y2="-110.483"><stop offset="0" stop-color="#504745"/><stop offset=".297" stop-color="#696360"/><stop offset=".587" stop-color="#6b635e"/><stop offset=".827" stop-color="#504745"/></linearGradient><linearGradient id="o" gradientTransform="matrix(.8507 .2779 -.2779 .8507 125.23 23.798)" gradientUnits="userSpaceOnUse" x1="1638.22" x2="484.469" y1="1893.65" y2="-104.705"><stop offset="0" stop-color="#4a4140"/><stop offset=".297" stop-color="#605a57"/><stop offset=".587" stop-color="#625a56"/><stop offset=".827" stop-color="#4a4140"/></linearGradient><linearGradient id="p" gradientTransform="matrix(.872 .2382 -.2382 .872 107.34 20.399)" gradientUnits="userSpaceOnUse" x1="1619.465" x2="447.527" y1="1933.825" y2="-96.033"><stop offset="0" stop-color="#443c3b"/><stop offset=".297" stop-color="#57514f"/><stop offset=".587" stop-color="#58514e"/><stop offset=".827" stop-color="#443c3b"/></linearGradient><linearGradient id="q" gradientTransform="rotate(12.531 -32.687 416.004) scale(.9152)" gradientUnits="userSpaceOnUse" x1="1585.269" x2="401.946" y1="1970.859" y2="-78.716"><stop offset="0" stop-color="#3e3736"/><stop offset=".297" stop-color="#4e4947"/><stop offset=".587" stop-color="#4f4946"/><stop offset=".827" stop-color="#3e3736"/></linearGradient><linearGradient id="r" gradientTransform="rotate(9.855 -43.091 422.08) scale(.9284)" gradientUnits="userSpaceOnUse" x1="1532.577" x2="344.354" y1="2007.123" y2="-50.94"><stop offset="0" stop-color="#383231"/><stop offset=".297" stop-color="#45403f"/><stop offset=".587" stop-color="#46403e"/><stop offset=".827" stop-color="#383231"/></linearGradient><linearGradient id="s" gradientTransform="matrix(.936 .1191 -.1191 .936 53.67 10.2)" gradientUnits="userSpaceOnUse" x1="1473.53" x2="286.424" y1="2036.469" y2="-19.658"><stop offset="0" stop-color="#332d2d"/><stop offset=".297" stop-color="#3c3737"/><stop offset=".587" stop-color="#3d3736"/><stop offset=".827" stop-color="#332d2d"/></linearGradient><linearGradient id="t" gradientTransform="rotate(4.743 -64.21 435.481) scale(.96059)" gradientUnits="userSpaceOnUse" x1="1411.496" x2="230.956" y1="2057.993" y2="13.237"><stop offset="0" stop-color="#2d2728"/><stop offset=".297" stop-color="#332e2e"/><stop offset=".587" stop-color="#332e2e"/><stop offset=".827" stop-color="#2d2728"/></linearGradient><linearGradient id="u" gradientTransform="matrix(.9787 .0397 -.0397 .9787 17.89 3.4)" gradientUnits="userSpaceOnUse" x1="1348.15" x2="178.985" y1="2071.88" y2="46.826"><stop offset="0" stop-color="#272223"/><stop offset=".297" stop-color="#2a2626"/><stop offset=".587" stop-color="#2a2626"/><stop offset=".827" stop-color="#272223"/></linearGradient><g fill="none" stroke-miterlimit="10"><path d="M.1 453C79 467.6 463.3 622.8 586.9 813.8c103.7 160 143.4 382.5 140.3 577.1-3.8 239.6 143.5 343.8 265.2 383.6 149.7 48.9 247.6 95.3 281.8 262.4" opacity=".14" stroke="url(#a)" stroke-width="1.052"/><path d="M13 431.5c61.6 11.4 319.1 133.2 476.8 280.3 34.5 32.2 64.2 66 86.2 100.9 19.1 30.2 36.2 62.4 51.5 96 38.5 84.5 66.2 177.1 83.3 270.4 12.7 69.4 19.5 139.3 21 206.5.6 29.8 3.4 57.6 7.9 83.6 31 178.4 150.9 267.2 255.8 306.5 33.2 12.4 64.1 24.2 92.5 37.4 61 28 110.1 61.2 145.7 113.3 20.3 29.7 36.4 64.8 48 108.6" opacity=".17" stroke="url(#b)" stroke-width="1.019"/><path d="M25.9 409.9C84.4 420.7 329 557.7 481 708.3c33.2 33 62.2 67.7 84 103.1 18.8 30.6 36 63.1 51.5 96.8 39.4 85 70.3 176.1 90.8 267.9 15.3 68.2 25.1 137.3 28.9 204.1 1.7 29.5 5.4 57.1 10.5 83.2 34.5 176 148.3 269.5 251.8 313.3 32.3 13.6 62.7 26.4 91 40.3 60.1 29.5 109.9 62.9 147.1 113.4 21.2 28.8 38.9 61.6 52.5 102.4" opacity=".199" stroke="url(#c)" stroke-width=".986"/><path d="M38.7 388.3c55.5 10.3 287.1 162.4 433.5 316.6 32 33.9 60.2 69.3 81.7 105.4 18.6 31 35.8 63.7 51.6 97.5 40.2 85.4 74.3 175.1 98.4 265.4 17.9 67.1 30.5 135.2 36.8 201.6 2.8 29.2 7.3 56.7 13 82.8 37.9 173.6 145.7 271.8 247.8 320.1 31.4 14.9 61.3 28.5 89.5 43.2 59.3 30.9 109.6 64.6 148.5 113.6 22.1 27.9 41.4 58.4 57 96.3" opacity=".229" stroke="url(#d)" stroke-width=".952"/><path d="M51.6 366.7c52.4 9.7 271.1 176.9 411.9 334.8 30.8 34.8 58.1 70.9 79.5 107.6 18.4 31.4 35.6 64.4 51.7 98.3 41.1 85.9 78.4 174.2 105.9 262.9 20.5 66 35.9 133.1 44.7 199.2 3.8 28.9 9.3 56.2 15.6 82.4 41.3 171.2 143.1 273.9 243.8 326.9 30.5 16.1 59.9 30.6 87.9 46.1 58.6 32.3 109.4 66.4 150 113.7 23.1 27 44 55.3 61.5 90.1" opacity=".258" stroke="url(#e)" stroke-width=".919"/><path d="M64.5 345.2c49.3 9.1 255.1 191.5 390.3 353 29.6 35.6 56.1 72.5 77.3 109.8 18.2 31.9 35.4 65.1 51.8 99 42 86.4 82.4 173.2 113.4 260.4 23 64.9 41.3 131.1 52.6 196.8 4.9 28.6 11.2 55.8 18.1 82 44.5 168.8 140.4 276 239.7 333.8 29.6 17.2 58.6 32.8 86.4 49 57.8 33.7 109.2 68.1 151.4 113.8 24 26.1 46.5 52.1 66 83.9" opacity=".288" stroke="url(#f)" stroke-width=".885"/><path d="M77.4 323.6c46.2 8.5 239.1 206 368.7 371.2 28.4 36.5 54.1 74.1 75 112.1 18 32.3 35.2 65.8 51.9 99.8 42.8 86.8 86.5 172.2 120.9 257.9 25.6 63.8 46.7 129 60.5 194.3 6 28.2 13.1 55.3 20.7 81.6 47.8 166.4 137.8 278 235.7 340.6 28.7 18.3 57.2 34.9 84.9 51.9 57 35.1 109 69.8 152.8 114 24.9 25.2 49 48.9 70.5 77.8" opacity=".317" stroke="url(#g)" stroke-width=".852"/><path d="M90.3 302c43.1 8 223.5 220.4 347 389.3 27.2 37.3 52 75.7 72.8 114.3 17.7 32.7 35 66.4 52 100.6 43.7 87.3 90.6 171.2 128.4 255.4 28.2 62.6 52 126.9 68.3 191.9 7 27.9 15.1 54.9 23.2 81.2 50.9 164 135.2 279.9 231.7 347.4 27.8 19.5 55.8 37 83.4 54.8 56.2 36.4 108.8 71.5 154.2 114.1 25.9 24.3 51.5 45.8 75 71.6" opacity=".347" stroke="url(#h)" stroke-width=".819"/><path d="M103.2 280.5c40.1 7.4 207.5 234.9 325.4 407.5 26 38.1 50 77.3 70.6 116.5 17.5 33.1 34.8 67.1 52.1 101.3 44.6 87.7 94.6 170.2 136 252.9 30.8 61.5 57.4 124.8 76.2 189.4 8 27.6 17 54.4 25.8 80.8 54 161.6 132.7 281.8 227.6 354.2 26.9 20.5 54.4 39 81.8 57.7 55.4 37.8 108.5 73.3 155.7 114.3 26.8 23.4 54 42.6 79.5 65.4" opacity=".376" stroke="url(#i)" stroke-width=".785"/><path d="M116.1 258.9c37 6.8 191.5 249.5 303.8 425.7 24.8 39 48 78.9 68.4 118.7 17.3 33.5 34.6 67.8 52.2 102.1 45.5 88.2 98.7 169.3 143.5 250.4 33.3 60.4 62.7 122.7 84.1 187 9.1 27.3 18.9 54 28.3 80.4 57 159.2 130.1 283.5 223.6 361.1 26.1 21.6 53.1 41.1 80.3 60.6 54.6 39.1 108.3 75 157.1 114.4 27.7 22.4 56.5 39.4 84 59.3" opacity=".406" stroke="url(#j)" stroke-width=".752"/><path d="M128.9 237.3c33.9 6.3 175.5 264.1 282.2 443.9 23.6 39.8 46 80.5 66.1 121 17.1 33.9 34.4 68.4 52.3 102.8 46.3 88.6 102.7 168.3 151 248 35.9 59.3 68.1 120.6 92 184.6 10.1 27 20.8 53.5 30.9 80 60 156.9 127.7 285.3 219.6 367.9 25.2 22.7 51.7 43.2 78.8 63.5 53.9 40.4 108.1 76.7 158.5 114.5 28.7 21.5 59 36.2 88.4 53.1" opacity=".435" stroke="url(#k)" stroke-width=".718"/><path d="M141.8 215.7c30.8 5.7 159.5 278.6 260.5 462.1 22.4 40.7 43.9 82.2 63.9 123.2 16.8 34.4 34.2 69.1 52.4 103.6 47.2 89.1 106.8 167.3 158.5 245.5 38.5 58.1 73.4 118.6 99.9 182.1 11.1 26.7 22.6 53.1 33.4 79.6 62.9 154.5 125.2 286.9 215.6 374.7 24.4 23.7 50.3 45.3 77.3 66.4 53.1 41.7 107.9 78.4 160 114.7 29.6 20.6 61.5 33.1 92.9 46.9" opacity=".465" stroke="url(#l)" stroke-width=".685"/><path d="M154.7 194.2c27.7 5.1 143.5 293.2 238.9 480.2 21.2 41.5 41.9 83.8 61.7 125.4 16.6 34.8 34 69.8 52.5 104.3 48.1 89.6 110.8 166.3 166 243 41.1 57 78.7 116.5 107.8 179.7 12.2 26.4 24.5 52.6 36 79.2 65.7 152.2 122.9 288.5 211.5 381.5 23.6 24.7 49 47.4 75.7 69.3 52.4 43 107.7 80.1 161.4 114.8 30.5 19.7 64 29.9 97.4 40.7" opacity=".494" stroke="url(#m)" stroke-width=".651"/><path d="M167.6 172.6c24.7 4.6 127.5 307.8 217.3 498.4 20 42.4 39.9 85.4 59.4 127.7 16.4 35.2 33.8 70.5 52.6 105.1 48.9 90 114.9 165.4 173.6 240.5 43.7 55.9 83.9 114.4 115.7 177.2 13.2 26.1 26.4 52.2 38.5 78.8 68.6 149.9 120.6 290.1 207.5 388.4 22.8 25.7 47.6 49.4 74.2 72.2 51.6 44.3 107.4 81.9 162.8 115 31.4 18.8 66.5 26.7 101.9 34.6" opacity=".524" stroke="url(#n)" stroke-width=".618"/><path d="M180.5 151c21.6 4 111.1 322.5 195.6 516.6 18.7 43.3 37.9 87 57.2 129.9 16.2 35.6 33.6 71.1 52.6 105.9 49.8 90.5 118.9 164.4 181.1 238 46.2 54.8 89.2 112.4 123.5 174.8 14.2 25.8 28.2 51.8 41.1 78.4 71.3 147.7 118.3 291.6 203.5 395.2 22 26.7 46.3 51.5 72.7 75.1 50.9 45.6 107.2 83.6 164.2 115.1 32.4 17.9 69 23.6 106.4 28.4" opacity=".553" stroke="url(#o)" stroke-width=".585"/><path d="M193.4 129.4c18.5 3.4 95.1 337.1 174 534.8 17.4 44.1 35.8 88.6 55 132.1 16 36 33.4 71.8 52.7 106.6 50.7 90.9 123 163.4 188.6 235.5 48.8 53.7 94.5 110.3 131.4 172.4 15.2 25.5 30.1 51.3 43.6 78 74 145.5 116.2 293.1 199.5 402 21.2 27.7 44.9 53.5 71.2 78 50.2 46.9 107 85.3 165.7 115.2 33.3 17 71.5 20.4 110.9 22.2" opacity=".583" stroke="url(#p)" stroke-width=".551"/><path d="M206.3 107.9c15.4 2.8 79.1 351.7 152.4 553 16.2 45 33.8 90.2 52.8 134.3 15.7 36.4 33.2 72.5 52.8 107.4 51.6 91.4 127 162.4 196.1 233 51.4 52.5 99.7 108.3 139.3 169.9 16.2 25.2 31.9 50.9 46.2 77.6 76.7 143.3 114.1 294.6 195.4 408.8 20.5 28.7 43.6 55.6 69.7 81 49.5 48.2 106.8 87 167.1 115.4 34.2 16.1 74 17.2 115.4 16.1" opacity=".612" stroke="url(#q)" stroke-width=".518"/><path d="M219.1 86.3c12.3 2.3 63.1 366.2 130.8 571.1 15 45.8 31.8 91.8 50.5 136.6 15.5 36.8 33 73.2 52.9 108.1 52.4 91.8 131.1 161.4 203.6 230.5 54 51.4 105 106.3 147.2 167.5 17.2 24.9 33.7 50.5 48.7 77.2 79.3 141.1 112.1 296.1 191.4 415.6 19.7 29.7 42.3 57.7 68.1 83.9 48.8 49.4 106.5 88.8 168.5 115.5 35.2 15.2 76.5 14.1 119.9 9.9" opacity=".642" stroke="url(#r)" stroke-width=".484"/><path d="M232 64.7c9.2 1.7 47.1 380.8 109.1 589.3 13.8 46.7 29.7 93.4 48.3 138.8 15.3 37.3 32.8 73.8 53 108.9 53.3 92.3 135.1 160.5 211.2 228 56.6 50.3 110.2 104.3 155.1 165 18.2 24.7 35.6 50.1 51.3 76.8 81.9 139 110.1 297.5 187.4 422.5 19 30.7 40.9 59.7 66.6 86.8 48.1 50.7 106.3 90.5 170 115.7 36.1 14.3 79 10.9 124.4 3.7" opacity=".671" stroke="url(#s)" stroke-width=".451"/><path d="M244.9 43.1c6.2 1.1 31.1 395.4 87.5 607.5 12.6 47.5 27.7 95 46.1 141 15.1 37.7 32.6 74.5 53.1 109.6 54.2 92.7 139.2 159.5 218.7 225.6 59.1 49.2 115.4 102.3 163 162.6 19.2 24.4 37.4 49.7 53.9 76.4 84.5 136.9 108.2 299 183.4 429.3 18.3 31.7 39.6 61.7 65.1 89.7 47.4 52 106.1 92.2 171.4 115.8 37 13.4 81.5 7.7 128.9-2.5" opacity=".701" stroke="url(#t)" stroke-width=".418"/><path d="M257.8 21.6c3.1.6 15.1 409.9 65.9 625.7 11.4 48.4 25.7 96.6 43.8 143.3 14.9 38.1 32.4 75.2 53.2 110.4 55 93.2 143.3 158.5 226.2 223.1 61.7 48 120.6 100.3 170.9 160.2 20.2 24.1 39.2 49.3 56.4 76 87.1 134.9 106.4 300.5 179.3 436.1 17.6 32.7 38.3 63.8 63.6 92.6 46.8 53.1 105.9 93.9 172.8 116 38 12.5 84 4.5 133.4-8.6" opacity=".731" stroke="url(#u)" stroke-width=".384"/><path d="M270.7 0s-.9 424.5 44.3 643.8c18.4 89.4 47.9 178 94.9 256.7 55.9 93.7 147.3 157.5 233.7 220.6 90.1 65.7 174.9 140.2 237.7 233.3 111 164.7 107.5 384.8 237.3 538.4 46 54.5 105.7 95.7 174.2 116.1 38.9 11.6 86.6 1.4 137.9-14.8" opacity=".76" stroke="#211d1e" stroke-width=".351"/></g></svg>