<svg viewBox="0 0 40 40" xmlns="http://www.w3.org/2000/svg"><g fill="none" stroke="#d4c8bd" stroke-linecap="round" stroke-linejoin="round" stroke-width="1.03"><path d="M32.68 26.87a12.34 12.34 0 0 0 0-17.45 2.06 2.06 0 0 0-2.91 2.91 8.22 8.22 0 0 1 0 11.63 2.06 2.06 0 0 1-2.91-2.91 4.11 4.11 0 0 0 0-5.82 1.24 1.24 0 0 0-2.14.82v6.08A4.73 4.73 0 0 1 21 26.77v3.73h2a1 1 0 0 1 0 2h-6a1 1 0 1 1 0-2h2v-3.73a4.73 4.73 0 0 1-3.78-4.63"/><path d="M7.32 9.42a12.34 12.34 0 0 0 0 17.45A2.06 2.06 0 0 0 10.23 24a8.22 8.22 0 0 1 0-11.63 2.06 2.06 0 0 1 2.91 2.91 4.11 4.11 0 0 0 0 5.82 1.27 1.27 0 0 0 2.14-.82v-6.13A4.73 4.73 0 0 1 20 9.42a4.73 4.73 0 0 1 4.73 4.73"/></g></svg>