<svg viewBox="0 0 40 40" xmlns="http://www.w3.org/2000/svg"><g fill="none" stroke="#d4c8bd" stroke-linecap="round" stroke-linejoin="round" stroke-width="1.03"><path d="M37.06 26.09c0 3.22-7.7 5.83-17.2 5.83s-17.2-2.61-17.2-5.83"/><path d="M29.94 26.09c0 1.89-4.52 3.42-10.09 3.42S9.77 28 9.77 26.09m11.29 0h15.73a1.35 1.35 0 0 0 1.31-1.64l-1.4-6.14a1.35 1.35 0 0 0-.26-.54l-3.92-4.92a1.35 1.35 0 0 0-2.1 0l-9.82 12.3.33.42 13.77-6.63a1.35 1.35 0 0 0 .3-2.26L24.37 8.23a1.35 1.35 0 0 0-.84-.29H17.4a1.35 1.35 0 0 0-1.31 1.64l3.5 15.34h.53L23.52 10a1.35 1.35 0 0 0-1.61-1.61l-13.21 3a1.35 1.35 0 0 0-.7.51l-3.87 4.79a1.35 1.35 0 0 0 .47 2.05l14.18 6.83.33-.42L9.58 13.2a1.35 1.35 0 0 0-2.26.26l-5.16 10.7a1.35 1.35 0 0 0 1.21 1.93h15.29"/></g></svg>