<svg viewBox="0 0 40 40" xmlns="http://www.w3.org/2000/svg"><g fill="none" stroke="#d4c8bd" stroke-linecap="round" stroke-linejoin="round" stroke-width="1.03"><path d="M25.53 31.15v1.09A1.55 1.55 0 0 1 23 33.47L17.17 29a1.55 1.55 0 0 0-1.43-.24L8.73 31a1.55 1.55 0 0 1-1.95-2l2.46-7A1.55 1.55 0 0 0 9 20.64l-4.34-6A1.55 1.55 0 0 1 6 12.2l7.38.18a1.55 1.55 0 0 0 1.3-.64l4.34-6a1.55 1.55 0 0 1 2.75.47l2.11 7.08a1.55 1.55 0 0 0 1 1l7 2.28a1.55 1.55 0 0 1 .4 2.76L29 21.67"/><path d="M26.39 20.07l2.94 2.47a.81.81 0 0 0 .74.16l3.7-1a.81.81 0 0 1 1 1.08l-1.44 3.56a.81.81 0 0 0 .07.75l2.12 3.21a.81.81 0 0 1-.73 1.25l-3.83-.27a.81.81 0 0 0-.69.3l-2.4 3a.81.81 0 0 1-1.42-.31l-.93-3.73A.81.81 0 0 0 25 30l-3.6-1.35a.81.81 0 0 1-.14-1.44l3.26-2a.81.81 0 0 0 .38-.65l.17-3.84a.81.81 0 0 1 1.32-.65z"/></g></svg>