<svg viewBox="0 0 228 52" xmlns="http://www.w3.org/2000/svg"><path d="M49.9 21.5C36.8 20.1 31 20.2 27 16.8c-4.4-3.8.8-8.4 12.3-9.1s22.3 2 24.6 5-2 4-2 4l2.3 1.4s14.1-5.2 15.2-5.7c.5-.2.7-.8.5-1.3 0-.1-.1-.1-.1-.2C77.4 7 67.7 3 52.2 3.3S25 7.2 18.5 11.8 9.2 24.6 22 27.7s30.2 3.6 38 5.9c5.2 1.5 10 7.8 0 10.2-11.5 2.8-27-2.4-31.6-4.9-4-2.1-6.9-4.2-8.9-3.2-9.2 4.6-17.2 12.9-17.2 12.9h2.8c3.6-3 4.6-3.5 15.7-.8 11.5 2.7 23.4 3.8 37.2.3 14.8-3.6 20-11.8 18.5-16.6-1.9-6.5-13.6-8.7-26.6-10zm143.4-.7c-.6-6.8-3.6-14.9-22.7-17.7s-55.2-1.4-83.3 6.8l2.2 1.1c17.8-3.1 35.9-4.4 54-3.8 27.7 1.2 38.6 5.2 39.1 14.8 0 0-8.6-1.5-15.7 3.2s-7 9.6-6.4 12.8 3.4 10.4 11.2 11.2c5.7.6 10.4-2.8 13.9-6.2 4.1-4.4 8.3-15.4 7.7-22.2zm-11.2 19c-.1 2.3-1.1 2.8-3.6 2.4-1.8-.4-3.6-.9-5.4-1.6-1.2-.3-2.2-1-2.8-2-.4-.9-.4-2.4-.4-4.8s0-4.9.5-5.6c.8-1.4 2.8-1.2 6-.5 1.3.2 2.6.6 3.8 1.2 1.3.6 2.1 1.9 1.9 3.4.1-.1.1 5.4 0 7.5zm-66 .6c-2.3 1.4-4.6.8-4.6-2.7V22.1c-1.1.5-2.4.9-3.6 1-2.6.4-5.5-1.1-9-1.5s-9.2 1.2-14.8 6.9-5.9 13.4-4.3 17.5 6.2 3.8 11.7-.1 10.6-11 10.6-11v5.6c-.1 2.1.3 4.1 1.2 6 1 1.6 3 3.3 6.9 1.7s8.2-6.9 8.2-6.9v-2.5c-.1 0-.2.4-2.3 1.6zM102 30.8c-1.4 2.4-6 8.2-8.9 9.3s-5.8 1.6-5.3-5.3 2.9-10.3 9.5-8.7c3.6.8 6.2 2.3 4.7 4.7zm51.5 10.3c-1.8-.5-.5-7.8-.5-13.4s-3.1-7.1-9.8-3.6c-4.6 2.6-8.6 5.9-12.1 9.9.1-2.7 0-5.3-.2-8-.4-3-1.7-5.4-4.4-4.5s-9.1 5.1-9.1 5.1V29c2.5-1.8 4.1-1.3 4.1 2.5v17s3.5.7 5.1-2.1c1.4-2.4 6.5-10 10.2-13.4s5.6-4.2 6.4-2.4-.1 9 .3 13 2 5.7 5.3 5.1c4-.7 9.1-7.4 9.1-7.4v-2.6c-.1-.1-2.7 2.8-4.4 2.4zm56.7-19.8c-8.3.8-14.8 5.4-15.1 10s8.4 5.4 14.2 6.5c8.4 1.6 10.5 5 5.7 6.9-5.3 2.2-14.3-3-17.1-3.9s-9.8 7.5-9.8 7.5h2.2c2.1-1.5 2.5-1.5 8-.3s13.3 1.3 18.9-1.3 8.5-6.2 7.9-9.5c-.8-4.5-8-6-15.9-7.1-6.5-.9-7.5-4-4.1-5.5s9.8-.3 11.7 1.1c.6.4.8 1.2.5 1.8-.1.2-.2.3-.4.4l1.4.4 6.8-3.1c2.7-1.1-5.7-4.8-14.9-3.9z" fill="none" stroke="#d4c8bd" stroke-miterlimit="10"/></svg>