<svg enable-background="new 0 0 168 76.3" viewBox="0 0 168 76.3" xmlns="http://www.w3.org/2000/svg"><path d="m35.8 34.7c-9.9-1-14.2-1-17.2-3.5-3.3-2.9.6-6.3 9.2-6.8s16.8 1.5 18.5 3.8-1.5 3-1.5 3l1.7 1s10.6-3.9 11.5-4.3c.4-.2.6-.6.4-1 0-.1-.1-.1-.1-.1-1.8-2.9-9.1-5.9-20.8-5.7s-20.5 3-25.4 6.4-7 9.6 2.6 12 22.7 2.7 28.6 4.4c3.9 1.1 7.5 5.9 0 7.7-8.6 2.1-20.3-1.8-23.8-3.7-3-1.6-5.2-3.2-6.7-2.4-4.6 2.5-9 5.8-12.8 9.6h2.1c2.7-2.3 3.5-2.6 11.8-.6 8.6 2 17.6 2.9 28 .2 11.1-2.7 15-8.9 13.9-12.5-1.4-4.9-10.2-6.5-20-7.5zm107.8-.5c-.4-5.1-2.7-11.2-17.1-13.3s-41.5-1.1-62.6 5.1l1.6.8c13.4-2.3 27-3.3 40.6-2.8 20.8.9 29 3.9 29.4 11.1 0 0-6.5-1.1-11.8 2.4s-5.3 7.2-4.8 9.6 2.6 7.8 8.4 8.4c4.3.5 7.8-2.1 10.4-4.7 3.2-3.2 6.4-11.5 5.9-16.6zm-8.4 14.3c-.1 1.7-.8 2.1-2.7 1.8-1.4-.3-2.7-.7-4.1-1.2-.9-.2-1.6-.7-2.1-1.5-.3-1.2-.4-2.4-.3-3.6 0-1.8 0-3.7.4-4.2.6-1 2.1-.9 4.5-.4 1 .2 2 .5 2.9.9 1 .4 1.6 1.5 1.4 2.6.1-.1.1 4 0 5.6zm-49.6.4c-1.7 1-3.5.6-3.5-2v-11.7c-.9.4-1.8.7-2.7.8-2 .3-4.1-.8-6.8-1.1s-6.9.9-11.1 5.2c-3.5 3.4-4.7 8.5-3.2 13.2 1.2 3.1 4.7 2.9 8.8-.1 3-2.4 5.7-5.2 8-8.3v4.1c-.1 1.6.2 3.1.9 4.5.8 1.2 2.3 2.5 5.2 1.3s6.2-5.2 6.2-5.2v-1.9c-.6.5-1.2.9-1.8 1.2zm-10.6-7.2c-1.1 1.8-4.5 6.2-6.7 7s-4.4 1.2-4-4 2.2-7.7 7.1-6.5c2.7.6 4.7 1.7 3.6 3.5zm38.7 7.8c-1.3-.4-.4-5.9-.4-10.1s-2.3-5.4-7.4-2.7c-3.4 1.9-6.5 4.5-9.1 7.4.1-2 0-4-.2-6-.3-2.3-1.3-4.1-3.3-3.4s-6.8 3.8-6.8 3.8v1.8c1.9-1.3 3.1-1 3.1 1.9v12.8s2.6.5 3.8-1.6c1.1-1.8 4.9-7.5 7.7-10.1s4.2-3.2 4.8-1.8-.1 6.8.2 9.8 1.5 4.3 4 3.8c3-.5 6.8-5.6 6.8-5.6v-2c0 .1-1.9 2.3-3.2 2zm42.7-14.9c-6.2.6-11.1 4.1-11.4 7.5s6.3 4.1 10.7 4.9c6.3 1.2 7.9 3.8 4.3 5.2-4 1.7-10.8-2.3-12.9-2.9s-7.4 5.6-7.4 5.6h1.6c1.6-1.1 1.9-1.1 6-.2s10 1 14.2-1 6.4-4.6 5.9-7.1c-.6-3.4-6-4.5-12-5.3-4.9-.7-5.6-3-3.1-4.1s7.4-.2 8.8.8c.4.3.6.9.4 1.3-.1.1-.2.2-.3.3l1.1.3 5.1-2.3c2.1-.9-4.2-3.7-11-3z" fill="none" stroke="#d4c8bd" stroke-miterlimit="10"/></svg>